<svg width="100" height="30" viewBox="0 0 100 30" fill="none" xmlns="http://www.w3.org/2000/svg">
<path d="M51.5393 8.37979H48.793V23.0566H51.5393V8.37979Z" fill="white"/>
<path d="M51.5393 3.452H48.793V6.68426H51.5393V3.452Z" fill="white"/>
<path d="M66.901 10.0755C65.9239 8.96283 64.0226 7.9838 61.8572 7.9838C56.5499 7.9838 53.9883 12.4077 53.9883 15.6667C53.9883 19.243 56.972 23.4287 61.8068 23.4287C64.8965 23.4287 66.349 21.8128 66.8506 21.1237H66.9033C66.9033 24.9388 64.6585 26.2897 61.7541 26.3164C59.1398 26.3164 58.0047 24.7796 57.5842 24.1968H54.5165C55.7327 26.9788 58.3192 28.8334 61.7257 28.8334C66.7162 28.8334 69.6473 25.8928 69.6473 21.0709V8.38006H66.901V10.0755ZM61.7784 20.9111C58.8468 20.9111 56.7346 18.3674 56.7346 15.7184C56.7346 12.9365 58.9 10.4996 61.8045 10.4996C63.4944 10.4996 66.901 11.6117 66.901 15.7452C66.901 17.626 65.3697 20.9111 61.7784 20.9111Z" fill="white"/>
<path d="M76.2235 8.3797V3.452H73.4772V8.3797H71.4971V10.8967H73.4772V23.0565H76.2235V10.8967H78.627V8.3797H76.2235Z" fill="white"/>
<path d="M43.2702 9.89867C41.8295 8.65994 39.9942 7.97976 38.0967 7.98128C33.555 7.98128 30.2012 11.6104 30.2012 15.6108C30.2012 19.3212 33.1849 23.425 38.0967 23.425C43.0617 23.425 45.9928 19.2416 45.9928 15.6631C45.9928 15.6555 45.9928 15.6479 45.9928 15.6404H45.998V3.44461H43.2702V9.89867ZM38.0967 20.9109C35.0336 20.9109 32.9475 18.341 32.9475 15.6915C32.9475 13.0688 35.0075 10.4995 38.0967 10.4995C41.1859 10.4995 43.2465 13.0688 43.2465 15.6654C43.2465 18.4473 41.0544 20.9109 38.0967 20.9109Z" fill="white"/>
<path d="M13.0859 16.8059C13.7408 16.8059 14.3844 16.6351 14.9536 16.3102C15.2242 16.153 15.4487 15.9272 15.6049 15.6554C15.761 15.3836 15.8432 15.0755 15.8432 14.7618C15.8432 14.4481 15.761 14.14 15.6049 13.8682C15.4487 13.5965 15.2242 13.3706 14.9536 13.2134L12.9735 12.0699L8.41504 14.6903L11.2031 16.3044C11.7749 16.6349 12.4236 16.8078 13.0836 16.8059H13.0859ZM12.9735 13.874L14.1712 14.5712C14.2042 14.5907 14.2316 14.6185 14.2508 14.6518C14.2699 14.6851 14.2801 14.7228 14.2804 14.7613C14.2807 14.7997 14.2711 14.8376 14.2524 14.8712C14.2338 14.9048 14.2068 14.933 14.1741 14.953C13.8405 15.1451 13.4625 15.2457 13.0779 15.2446C12.6933 15.2436 12.3157 15.141 11.9832 14.9472L11.5477 14.6962L12.9735 13.874Z" fill="white"/>
<path d="M13.0239 0.41629L0 7.85345V22.3606L12.9967 29.6339L25.2439 22.2845V7.83021L13.0239 0.41629ZM12.9729 27.824L1.56023 21.4437V14.8508L12.9695 8.33745L19.3563 12.2937L17.6467 13.2814C17.4676 13.3856 17.3369 13.5567 17.2832 13.7573C17.2296 13.9579 17.2574 14.1716 17.3606 14.3517C17.4656 14.5298 17.6358 14.6599 17.8349 14.7141C18.034 14.7684 18.2463 14.7426 18.4268 14.6422L22.3974 12.3367L12.9996 6.51709L1.56023 13.0484V8.76218L12.9996 2.232L23.6837 8.71047V15.2325L13.0818 21.5965L6.11292 17.7565L7.48434 16.9617C7.66374 16.8579 7.79471 16.6868 7.84841 16.4862C7.90212 16.2855 7.87418 16.0717 7.77073 15.8917C7.66728 15.7117 7.4968 15.5803 7.29679 15.5264C7.09678 15.4726 6.88363 15.5006 6.70423 15.6044L2.93165 17.789L13.1125 23.4018L23.6837 17.0581V21.3978L12.9729 27.824Z" fill="white"/>
<path d="M95.5159 20.5786H93.8387L89.6648 15.7368L93.8387 10.8946H95.5159V12.7887L99.8596 9.64534L95.5159 6.50256V8.39613H92.7001L88.0183 13.827L83.337 8.39613H80.1807V10.8946H82.1984L86.3723 15.7368L82.1984 20.5786H80.1807V23.077H83.337L88.0183 17.6461L92.7001 23.077H95.5159V24.9705L99.8596 21.8278L95.5159 18.6844V20.5786Z" fill="#D9D8D8"/>
</svg>
