<svg width="35" height="42" viewBox="0 0 35 42" fill="none" xmlns="http://www.w3.org/2000/svg">
<path d="M18.142 23.4611C19.05 23.4611 19.9423 23.2251 20.7316 22.7762C21.1067 22.5588 21.418 22.2467 21.6345 21.8712C21.8509 21.4956 21.9649 21.0697 21.9649 20.6362C21.9649 20.2027 21.8509 19.7769 21.6345 19.4013C21.418 19.0257 21.1067 18.7136 20.7316 18.4963L17.9862 16.9161L11.666 20.5375L15.5315 22.7681C16.3253 23.2253 17.2259 23.4644 18.142 23.4611ZM17.9862 19.4093L19.6468 20.3729C19.6925 20.3998 19.7305 20.4382 19.7571 20.4842C19.7836 20.5302 19.7978 20.5824 19.7982 20.6355C19.7986 20.6886 19.7852 20.741 19.7594 20.7874C19.7336 20.8338 19.6961 20.8727 19.6508 20.9004C19.1883 21.1659 18.6641 21.3049 18.1309 21.3035C17.5976 21.3021 17.0742 21.1603 16.6131 20.8924L16.0093 20.5455L17.9862 19.4093Z" fill="white"/>
<path d="M18.0573 0.810852L0 11.0889V31.1375L18.0195 41.1891L35 31.0323V11.0568L18.0573 0.810852ZM17.9866 38.6879L2.16321 29.8704V20.7591L17.9818 11.7578L26.837 17.2252L24.4666 18.5903C24.2183 18.7342 24.0371 18.9707 23.9627 19.2479C23.8884 19.5251 23.9269 19.8205 24.0699 20.0694C24.2155 20.3156 24.4515 20.4953 24.7275 20.5703C25.0036 20.6453 25.298 20.6096 25.5482 20.4708L31.0534 17.2846L18.0235 9.24207L2.16321 18.2683V12.3448L18.0235 3.32014L32.8368 12.2733V21.2867L18.1376 30.0816L8.47538 24.7748L10.3768 23.6763C10.6256 23.5329 10.8071 23.2965 10.8816 23.0192C10.9561 22.7419 10.9173 22.4464 10.7739 22.1976C10.6305 21.9489 10.3941 21.7673 10.1168 21.6929C9.83949 21.6184 9.54396 21.6571 9.29522 21.8006L4.06465 24.8197L18.1801 32.5765L32.8368 23.8096V29.807L17.9866 38.6879Z" fill="white"/>
</svg>
