<svg width="21" height="22" viewBox="0 0 21 22" fill="none" xmlns="http://www.w3.org/2000/svg">
<path d="M11.9999 2C15.8799 2 18.9999 5.14 18.9999 9C18.9999 11.8 17.3699 14.19 14.9999 15.31V20H7.99992V17H6.99992C5.88992 17 4.99992 16.11 4.99992 15V12H3.49992C3.07992 12 2.83992 11.5 3.07992 11.19L4.99992 8.66C5.18992 4.95 8.22992 2 11.9999 2ZM11.9999 0C7.40992 0 3.60992 3.42 3.05992 7.9L1.49992 10H1.46992L1.44992 10.03C0.899918 10.79 0.829918 11.79 1.25992 12.62C1.61992 13.31 2.25992 13.79 2.99992 13.94V15C2.99992 16.85 4.27992 18.42 5.99992 18.87V22H16.9999V16.5C19.4999 14.83 20.9999 12.06 20.9999 9C20.9999 4.03 16.9599 0 11.9999 0ZM16.3299 8.3L14.3699 8.81L15.8099 10.27C16.1599 10.61 16.1599 11.19 15.8099 11.54C15.4599 11.89 14.8799 11.89 14.5399 11.54L13.0899 10.1L12.5699 12.06C12.4499 12.55 11.9599 12.82 11.4999 12.7C10.9999 12.57 10.7199 12.08 10.8399 11.59L11.3699 9.63L9.40992 10.16C8.91992 10.28 8.42992 10 8.29992 9.5C8.17992 9.05 8.45992 8.55 8.93992 8.43L10.8999 7.91L9.45992 6.46C9.10992 6.12 9.10992 5.55 9.45992 5.19C9.80992 4.84 10.3899 4.84 10.7299 5.19L12.1899 6.63L12.6999 4.67C12.8199 4.18 13.3199 3.9 13.7899 4.03C14.2799 4.16 14.5599 4.65 14.4299 5.13L13.8999 7.1L15.8699 6.57C16.3499 6.44 16.8399 6.72 16.9699 7.21C17.0999 7.68 16.8199 8.18 16.3299 8.3Z" fill="white"/>
</svg>
