<svg width="22" height="17" viewBox="0 0 33 25" fill="none" xmlns="http://www.w3.org/2000/svg">
<path d="M24.5205 14.3979C25.6726 14.3979 26.8976 14.5146 28.1663 14.7479V16.9354C27.2622 16.7021 26.0372 16.5854 24.5205 16.5854C21.7497 16.5854 19.5768 17.0667 17.958 18.0292V15.5646C19.6643 14.7917 21.8518 14.3979 24.5205 14.3979ZM17.958 11.6708C19.8393 10.8979 22.0268 10.5187 24.5205 10.5187C25.6726 10.5187 26.8976 10.6208 28.1663 10.8542V13.0417C27.2622 12.8083 26.0372 12.6917 24.5205 12.6917C21.7497 12.6917 19.5768 13.1875 17.958 14.1354V11.6708ZM24.5205 8.8125C21.7497 8.8125 19.5768 9.27917 17.958 10.2708V7.85C19.7518 7.03333 21.9393 6.625 24.5205 6.625C25.6726 6.625 26.8976 6.74167 28.1663 6.96042V9.22083C27.0872 8.94375 25.8476 8.8125 24.5205 8.8125ZM29.6247 20.4792V3.70833C28.108 3.22708 26.4018 2.97917 24.5205 2.97917C21.5309 2.97917 18.8622 3.70833 16.4997 5.16667V21.9375C18.8622 20.4792 21.5309 19.75 24.5205 19.75C26.2559 19.75 27.9622 19.9833 29.6247 20.4792ZM24.5205 0.0625C27.9476 0.0625 30.6309 0.791667 32.5413 2.25V23.4833C32.5413 23.6583 32.4684 23.8333 32.308 23.9937C32.1476 24.125 31.9726 24.2417 31.8122 24.2417C31.6518 24.2417 31.5351 24.2125 31.4476 24.1687C29.5809 23.1625 27.2622 22.6667 24.5205 22.6667C21.5309 22.6667 18.8622 23.3958 16.4997 24.8542C14.5455 23.3958 11.8768 22.6667 8.47884 22.6667C6.05801 22.6667 3.73926 23.1917 1.55176 24.2271C1.50801 24.2417 1.44967 24.2417 1.37676 24.2708C1.31842 24.2854 1.26009 24.3 1.18717 24.3C1.02676 24.3 0.851758 24.2417 0.691341 24.125C0.530924 23.9646 0.458008 23.8042 0.458008 23.6146V2.25C2.41217 0.791667 5.09551 0.0625 8.47884 0.0625C11.8768 0.0625 14.5455 0.791667 16.4997 2.25C18.4538 0.791667 21.1226 0.0625 24.5205 0.0625Z" fill="#565656"/>
</svg>
