<svg width="18" height="20" viewBox="0 0 18 20" fill="none" xmlns="http://www.w3.org/2000/svg">
<path d="M6 8.99988H4V10.9999H6V8.99988ZM10 8.99988H8V10.9999H10V8.99988ZM14 8.99988H12V10.9999H14V8.99988ZM16 1.99988H15V-0.00012207H13V1.99988H5V-0.00012207H3V1.99988H2C0.89 1.99988 0 2.89988 0 3.99988V17.9999C0 18.5303 0.210714 19.039 0.585786 19.4141C0.960859 19.7892 1.46957 19.9999 2 19.9999H16C16.5304 19.9999 17.0391 19.7892 17.4142 19.4141C17.7893 19.039 18 18.5303 18 17.9999V3.99988C18 3.46944 17.7893 2.96074 17.4142 2.58566C17.0391 2.21059 16.5304 1.99988 16 1.99988ZM16 17.9999H2V6.99988H16V17.9999Z" fill="#565656"/>
</svg>
