<svg width="17" height="17" viewBox="0 0 17 17" fill="none" xmlns="http://www.w3.org/2000/svg">
<path d="M8.49968 14.8335C5.00843 14.8335 2.16634 11.9914 2.16634 8.50016C2.16634 5.00891 5.00843 2.16683 8.49968 2.16683C11.9909 2.16683 14.833 5.00891 14.833 8.50016C14.833 11.9914 11.9909 14.8335 8.49968 14.8335ZM8.49968 0.583496C4.12176 0.583496 0.583008 4.12225 0.583008 8.50016C0.583008 12.8781 4.12176 16.4168 8.49968 16.4168C12.8776 16.4168 16.4163 12.8781 16.4163 8.50016C16.4163 4.12225 12.8776 0.583496 8.49968 0.583496ZM10.5501 5.3335L8.49968 7.38391L6.44926 5.3335L5.33301 6.44975L7.38343 8.50016L5.33301 10.5506L6.44926 11.6668L8.49968 9.61641L10.5501 11.6668L11.6663 10.5506L9.61592 8.50016L11.6663 6.44975L10.5501 5.3335Z" fill="#F3368D"/>
</svg>
