<svg width="10" height="18" viewBox="0 0 10 18" fill="none" xmlns="http://www.w3.org/2000/svg">
<path d="M0 11.9999H2C2 13.0799 3.37 13.9999 5 13.9999C6.63 13.9999 8 13.0799 8 11.9999C8 10.8999 6.96 10.4999 4.76 9.96988C2.64 9.43988 0 8.77988 0 5.99988C0 4.20988 1.47 2.68988 3.5 2.17988V-0.00012207H6.5V2.17988C8.53 2.68988 10 4.20988 10 5.99988H8C8 4.91988 6.63 3.99988 5 3.99988C3.37 3.99988 2 4.91988 2 5.99988C2 7.09988 3.04 7.49988 5.24 8.02988C7.36 8.55988 10 9.21988 10 11.9999C10 13.7899 8.53 15.3099 6.5 15.8199V17.9999H3.5V15.8199C1.47 15.3099 0 13.7899 0 11.9999Z" fill="#565656"/>
</svg>
