<svg width="35" height="22" viewBox="0 0 35 22" fill="none" xmlns="http://www.w3.org/2000/svg">
<path d="M17.5 0.520836C18.8537 0.520836 20.152 1.0586 21.1092 2.01581C22.0664 2.97303 22.6042 4.27129 22.6042 5.625C22.6042 6.97871 22.0664 8.27698 21.1092 9.23419C20.152 10.1914 18.8537 10.7292 17.5 10.7292C16.1463 10.7292 14.848 10.1914 13.8908 9.23419C12.9336 8.27698 12.3958 6.97871 12.3958 5.625C12.3958 4.27129 12.9336 2.97303 13.8908 2.01581C14.848 1.0586 16.1463 0.520836 17.5 0.520836ZM7.29167 4.16667C8.10833 4.16667 8.86667 4.38542 9.52292 4.77917C9.30417 6.86459 9.91667 8.93542 11.1708 10.5542C10.4417 11.9542 8.98333 12.9167 7.29167 12.9167C6.13134 12.9167 5.01855 12.4557 4.19807 11.6353C3.3776 10.8148 2.91667 9.70199 2.91667 8.54167C2.91667 7.38135 3.3776 6.26855 4.19807 5.44808C5.01855 4.6276 6.13134 4.16667 7.29167 4.16667ZM27.7083 4.16667C28.8687 4.16667 29.9815 4.6276 30.8019 5.44808C31.6224 6.26855 32.0833 7.38135 32.0833 8.54167C32.0833 9.70199 31.6224 10.8148 30.8019 11.6353C29.9815 12.4557 28.8687 12.9167 27.7083 12.9167C26.0167 12.9167 24.5583 11.9542 23.8292 10.5542C25.0833 8.93542 25.6958 6.86459 25.4771 4.77917C26.1333 4.38542 26.8917 4.16667 27.7083 4.16667ZM8.02083 19.1146C8.02083 16.0958 12.2646 13.6458 17.5 13.6458C22.7354 13.6458 26.9792 16.0958 26.9792 19.1146V21.6667H8.02083V19.1146ZM0 21.6667V19.4792C0 17.4521 2.75625 15.7458 6.48958 15.25C5.62917 16.2417 5.10417 17.6125 5.10417 19.1146V21.6667H0ZM35 21.6667H29.8958V19.1146C29.8958 17.6125 29.3708 16.2417 28.5104 15.25C32.2438 15.7458 35 17.4521 35 19.4792V21.6667Z" fill="white"/>
</svg>
