<svg width="27" height="28" viewBox="0 0 27 28" fill="none" xmlns="http://www.w3.org/2000/svg">
<path d="M16.5333 19.2354L20.3104 15.4583H6.20833V12.5417H20.3104L16.5333 8.76458L18.6042 6.70833L25.8958 14L18.6042 21.2917L16.5333 19.2354ZM23.7083 0.875C24.4819 0.875 25.2237 1.18229 25.7707 1.72927C26.3177 2.27625 26.625 3.01812 26.625 3.79167V10.6021L23.7083 7.68542V3.79167H3.29167V24.2083H23.7083V20.3146L26.625 17.3979V24.2083C26.625 24.9819 26.3177 25.7237 25.7707 26.2707C25.2237 26.8177 24.4819 27.125 23.7083 27.125H3.29167C1.67292 27.125 0.375 25.8125 0.375 24.2083V3.79167C0.375 2.17292 1.67292 0.875 3.29167 0.875H23.7083Z" fill="#565656"/>
</svg>
