<svg width="15" height="15" viewBox="0 0 15 15" fill="none" xmlns="http://www.w3.org/2000/svg">
<path d="M9.875 5.125H1.95833V1.95833H9.875V5.125ZM7.5 13.0417C6.87011 13.0417 6.26602 12.7914 5.82062 12.346C5.37522 11.9006 5.125 11.2966 5.125 10.6667C5.125 10.0368 5.37522 9.43269 5.82062 8.98729C6.26602 8.54189 6.87011 8.29167 7.5 8.29167C8.12989 8.29167 8.73398 8.54189 9.17938 8.98729C9.62478 9.43269 9.875 10.0368 9.875 10.6667C9.875 11.2966 9.62478 11.9006 9.17938 12.346C8.73398 12.7914 8.12989 13.0417 7.5 13.0417ZM11.4583 0.375H1.95833C1.07958 0.375 0.375 1.0875 0.375 1.95833V13.0417C0.375 13.4616 0.541815 13.8643 0.838748 14.1613C1.13568 14.4582 1.53841 14.625 1.95833 14.625H13.0417C13.4616 14.625 13.8643 14.4582 14.1613 14.1613C14.4582 13.8643 14.625 13.4616 14.625 13.0417V3.54167L11.4583 0.375Z" fill="white"/>
</svg>
