<svg width="15" height="15" viewBox="0 0 15 15" fill="none" xmlns="http://www.w3.org/2000/svg">
<path d="M5.83342 0.208344C7.27 0.208344 8.64775 0.779026 9.66358 1.79485C10.6794 2.81067 11.2501 4.18842 11.2501 5.62501C11.2501 6.96668 10.7584 8.20001 9.95008 9.15001L10.1751 9.37501H10.8334L15.0001 13.5417L13.7501 14.7917L9.58342 10.625V9.96668L9.35841 9.74168C8.40841 10.55 7.17508 11.0417 5.83342 11.0417C4.39683 11.0417 3.01908 10.471 2.00325 9.45517C0.987431 8.43935 0.416748 7.0616 0.416748 5.62501C0.416748 4.18842 0.987431 2.81067 2.00325 1.79485C3.01908 0.779026 4.39683 0.208344 5.83342 0.208344ZM5.83342 1.87501C3.75008 1.87501 2.08341 3.54168 2.08341 5.62501C2.08341 7.70834 3.75008 9.37501 5.83342 9.37501C7.91675 9.37501 9.58342 7.70834 9.58342 5.62501C9.58342 3.54168 7.91675 1.87501 5.83342 1.87501Z" fill="#565656"/>
</svg>
