<svg width="20" height="20" viewBox="0 0 20 20" fill="none" xmlns="http://www.w3.org/2000/svg">
<path d="M9.99984 6C11.0607 6 12.0781 6.42143 12.8283 7.17157C13.5784 7.92172 13.9998 8.93913 13.9998 10C13.9998 11.0609 13.5784 12.0783 12.8283 12.8284C12.0781 13.5786 11.0607 14 9.99984 14C8.93897 14 7.92156 13.5786 7.17141 12.8284C6.42127 12.0783 5.99984 11.0609 5.99984 10C5.99984 8.93913 6.42127 7.92172 7.17141 7.17157C7.92156 6.42143 8.93897 6 9.99984 6ZM9.99984 8C9.46941 8 8.9607 8.21071 8.58563 8.58579C8.21055 8.96086 7.99984 9.46957 7.99984 10C7.99984 10.5304 8.21055 11.0391 8.58563 11.4142C8.9607 11.7893 9.46941 12 9.99984 12C10.5303 12 11.039 11.7893 11.4141 11.4142C11.7891 11.0391 11.9998 10.5304 11.9998 10C11.9998 9.46957 11.7891 8.96086 11.4141 8.58579C11.039 8.21071 10.5303 8 9.99984 8ZM7.99984 20C7.74984 20 7.53984 19.82 7.49984 19.58L7.12984 16.93C6.49984 16.68 5.95984 16.34 5.43984 15.94L2.94984 16.95C2.72984 17.03 2.45984 16.95 2.33984 16.73L0.339839 13.27C0.209839 13.05 0.26984 12.78 0.45984 12.63L2.56984 10.97L2.49984 10L2.56984 9L0.45984 7.37C0.26984 7.22 0.209839 6.95 0.339839 6.73L2.33984 3.27C2.45984 3.05 2.72984 2.96 2.94984 3.05L5.43984 4.05C5.95984 3.66 6.49984 3.32 7.12984 3.07L7.49984 0.42C7.53984 0.18 7.74984 0 7.99984 0H11.9998C12.2498 0 12.4598 0.18 12.4998 0.42L12.8698 3.07C13.4998 3.32 14.0398 3.66 14.5598 4.05L17.0498 3.05C17.2698 2.96 17.5398 3.05 17.6598 3.27L19.6598 6.73C19.7898 6.95 19.7298 7.22 19.5398 7.37L17.4298 9L17.4998 10L17.4298 11L19.5398 12.63C19.7298 12.78 19.7898 13.05 19.6598 13.27L17.6598 16.73C17.5398 16.95 17.2698 17.04 17.0498 16.95L14.5598 15.95C14.0398 16.34 13.4998 16.68 12.8698 16.93L12.4998 19.58C12.4598 19.82 12.2498 20 11.9998 20H7.99984ZM9.24984 2L8.87984 4.61C7.67984 4.86 6.61984 5.5 5.84984 6.39L3.43984 5.35L2.68984 6.65L4.79984 8.2C4.39984 9.37 4.39984 10.64 4.79984 11.8L2.67984 13.36L3.42984 14.66L5.85984 13.62C6.62984 14.5 7.67984 15.14 8.86984 15.38L9.23984 18H10.7598L11.1298 15.39C12.3198 15.14 13.3698 14.5 14.1398 13.62L16.5698 14.66L17.3198 13.36L15.1998 11.81C15.5998 10.64 15.5998 9.37 15.1998 8.2L17.3098 6.65L16.5598 5.35L14.1498 6.39C13.3798 5.5 12.3198 4.86 11.1198 4.62L10.7498 2H9.24984Z" fill="#D9D8D8"/>
</svg>
