<svg width="31" height="34" viewBox="0 0 31 34" fill="none" xmlns="http://www.w3.org/2000/svg">
<path d="M16.958 3.875C22.6455 3.875 27.1663 8.39583 27.1663 14.0833C27.1663 18.1667 24.833 21.6667 21.333 23.2708V30.125H11.1246V25.75H9.66631C8.06215 25.75 6.74965 24.4375 6.74965 22.8333V18.4583H4.56215C3.97881 18.4583 3.54131 17.7292 3.97881 17.2917L6.74965 13.6458C7.04131 8.10416 11.4163 3.875 16.958 3.875ZM16.958 0.958332C10.2496 0.958332 4.70798 5.91666 3.97881 12.4792L1.64548 15.5417C0.77048 16.7083 0.77048 18.1667 1.35381 19.3333C1.93715 20.3542 2.81215 21.0833 3.83298 21.2292V22.8333C3.83298 25.6042 5.72881 27.7917 8.20798 28.5208V33.0417H24.2496V25.0208C27.8955 22.5417 30.083 18.6042 30.083 14.0833C30.083 6.79167 24.2496 0.958332 16.958 0.958332ZM12.583 14.0833C11.708 14.0833 11.1246 13.5 11.1246 12.625C11.1246 11.75 11.708 11.1667 12.583 11.1667C13.458 11.1667 14.0413 11.75 14.0413 12.625C14.0413 13.5 13.458 14.0833 12.583 14.0833ZM16.958 14.0833C16.083 14.0833 15.4996 13.5 15.4996 12.625C15.4996 11.75 16.083 11.1667 16.958 11.1667C17.833 11.1667 18.4163 11.75 18.4163 12.625C18.4163 13.5 17.833 14.0833 16.958 14.0833ZM21.333 14.0833C20.6038 14.0833 19.8746 13.5 19.8746 12.625C19.8746 11.75 20.6038 11.1667 21.333 11.1667C22.0621 11.1667 22.7913 11.75 22.7913 12.625C22.7913 13.5 22.0621 14.0833 21.333 14.0833Z" fill="white"/>
</svg>
