<svg width="17" height="17" viewBox="0 0 17 17" fill="none" xmlns="http://www.w3.org/2000/svg">
<path d="M8.49968 14.8335C10.1794 14.8335 11.7903 14.1662 12.978 12.9785C14.1657 11.7908 14.833 10.1799 14.833 8.50016C14.833 6.82046 14.1657 5.20955 12.978 4.02182C11.7903 2.83409 10.1794 2.16683 8.49968 2.16683C6.81997 2.16683 5.20906 2.83409 4.02133 4.02182C2.8336 5.20955 2.16634 6.82046 2.16634 8.50016C2.16634 10.1799 2.8336 11.7908 4.02133 12.9785C5.20906 14.1662 6.81997 14.8335 8.49968 14.8335ZM8.49968 0.583496C9.53931 0.583496 10.5688 0.788267 11.5293 1.18612C12.4897 1.58397 13.3625 2.1671 14.0976 2.90223C14.8327 3.63736 15.4159 4.51009 15.8137 5.47059C16.2116 6.43108 16.4163 7.46053 16.4163 8.50016C16.4163 10.5998 15.5823 12.6134 14.0976 14.0981C12.6129 15.5828 10.5993 16.4168 8.49968 16.4168C4.12176 16.4168 0.583008 12.8543 0.583008 8.50016C0.583008 6.40053 1.41708 4.3869 2.90175 2.90223C4.38641 1.41757 6.40004 0.583496 8.49968 0.583496ZM8.89551 4.54183V8.69808L12.458 10.8118L11.8643 11.7856L7.70801 9.29183V4.54183H8.89551Z" fill="#565656"/>
</svg>
