<svg width="29" height="28" viewBox="0 0 29 28" fill="none" xmlns="http://www.w3.org/2000/svg">
<path d="M17.0959 18.8125L25.8459 27.5625L28.923 24.4125L20.173 15.6625L17.0959 18.8125ZM22.5209 11.2292C21.9522 11.2292 21.3397 11.1562 20.8584 10.9521L4.24798 27.4896L1.1709 24.4125L11.9771 13.6208L9.3959 11.025L8.3459 12.0458L6.23132 9.98958V14.1604L5.21048 15.1813L0.0771484 9.98958L1.09798 8.96875H5.1959L3.15423 6.9125L8.3459 1.72083C10.0521 0.0145829 12.7938 0.0145829 14.5001 1.72083L11.423 4.87083L13.4792 6.9125L12.4438 7.94792L15.0542 10.5438L17.7084 7.80208C17.5042 7.32083 17.4167 6.70833 17.4167 6.16875C17.4167 3.29583 19.6917 1.03542 22.5209 1.03542C23.3813 1.03542 24.1396 1.23958 24.8251 1.64792L20.9313 5.54167L23.1188 7.72917L27.0126 3.83542C27.4209 4.52083 27.6251 5.25 27.6251 6.16875C27.6251 8.96875 25.3646 11.2292 22.5209 11.2292Z" fill="white"/>
</svg>
